<svg width="24" height="24" viewBox="0 0 24 24" fill="none" xmlns="http://www.w3.org/2000/svg">
<g id="mdi:instagram">
<path id="Vector" d="M7.09 1H15.91C19.27 1 22 3.73 22 7.09V15.91C22 17.5252 21.3584 19.0742 20.2163 20.2163C19.0742 21.3584 17.5252 22 15.91 22H7.09C3.73 22 1 19.27 1 15.91V7.09C1 5.47483 1.64162 3.92582 2.78372 2.78372C3.92582 1.64162 5.47483 1 7.09 1ZM6.88 3.1C5.87748 3.1 4.91602 3.49825 4.20714 4.20714C3.49825 4.91602 3.1 5.87748 3.1 6.88V16.12C3.1 18.2095 4.7905 19.9 6.88 19.9H16.12C17.1225 19.9 18.084 19.5018 18.7929 18.7929C19.5018 18.084 19.9 17.1225 19.9 16.12V6.88C19.9 4.7905 18.2095 3.1 16.12 3.1H6.88ZM17.0125 4.675C17.3606 4.675 17.6944 4.81328 17.9406 5.05942C18.1867 5.30556 18.325 5.6394 18.325 5.9875C18.325 6.3356 18.1867 6.66944 17.9406 6.91558C17.6944 7.16172 17.3606 7.3 17.0125 7.3C16.6644 7.3 16.3306 7.16172 16.0844 6.91558C15.8383 6.66944 15.7 6.3356 15.7 5.9875C15.7 5.6394 15.8383 5.30556 16.0844 5.05942C16.3306 4.81328 16.6644 4.675 17.0125 4.675ZM11.5 6.25C12.8924 6.25 14.2277 6.80312 15.2123 7.78769C16.1969 8.77225 16.75 10.1076 16.75 11.5C16.75 12.8924 16.1969 14.2277 15.2123 15.2123C14.2277 16.1969 12.8924 16.75 11.5 16.75C10.1076 16.75 8.77225 16.1969 7.78769 15.2123C6.80312 14.2277 6.25 12.8924 6.25 11.5C6.25 10.1076 6.80312 8.77225 7.78769 7.78769C8.77225 6.80312 10.1076 6.25 11.5 6.25ZM11.5 8.35C10.6646 8.35 9.86335 8.68187 9.27261 9.27261C8.68187 9.86335 8.35 10.6646 8.35 11.5C8.35 12.3354 8.68187 13.1366 9.27261 13.7274C9.86335 14.3181 10.6646 14.65 11.5 14.65C12.3354 14.65 13.1366 14.3181 13.7274 13.7274C14.3181 13.1366 14.65 12.3354 14.65 11.5C14.65 10.6646 14.3181 9.86335 13.7274 9.27261C13.1366 8.68187 12.3354 8.35 11.5 8.35Z" fill="#001F3F"/>
</g>
</svg>
